Coordinates
version=1
nRows=13
nColumns=36
inDegrees=yes

Units are S.I. units (second, meters, Newtons, ...)
If the header above contains a line with 'inDegrees', this indicates whether rotational values are in degrees (yes) or radians (no).

endheader
time	pelvis_tilt	pelvis_list	pelvis_rotation	pelvis_tx	pelvis_ty	pelvis_tz	hip_flexion_r	hip_adduction_r	hip_rotation_r	knee_angle_r	knee_angle_r_beta	ankle_angle_r	subtalar_angle_r	mtp_angle_r	hip_flexion_l	hip_adduction_l	hip_rotation_l	knee_angle_l	knee_angle_l_beta	ankle_angle_l	subtalar_angle_l	mtp_angle_l	lumbar_extension	lumbar_bending	lumbar_rotation	arm_flex_r	arm_add_r	arm_rot_r	elbow_flex_r	pro_sup_r	arm_flex_l	arm_add_l	arm_rot_l	elbow_flex_l	pro_sup_l
      0.00000000	      0.69893552	     -1.76926458	      0.56635325	     -1.10133009	      1.40253735	     -0.05739457	     -0.62328980	      2.39619493	      2.37626291	      6.90561943	      0.12052580	      6.09709420	     -6.37269224	     -6.05633400	     -1.01965167	     -1.97905646	      0.70539608	      5.37966146	      0.09389281	      9.93959213	     -0.60182123	     -6.05633400	     -8.40128968	      1.07215715	     -0.05450071	     -1.53488145	     -7.20277028	      1.82863666	     27.79738206	     80.90449754	     -0.11636066	     -5.84558814	      5.24750127	     25.95632712	     75.89663069
      0.00416670	     -1.47382802	     -1.26964111	      0.72382331	     -1.09894567	      1.39899159	     -0.05769425	      1.71284894	      1.89657150	      2.38381214	      7.15824698	      0.12493498	      7.77246845	     -3.86322942	     -6.22483520	      1.52585689	     -0.90758839	      1.80474725	      5.61149260	      0.09793902	      8.76225953	     -0.39088857	     -6.22483520	     -4.85906543	      0.47962483	      0.04732270	     -2.88989523	     -5.99054659	     -3.34286293	     27.47402460	     79.99558897	     -0.54519123	     -4.54341503	     -0.10325488	     24.99456457	     75.37913434
      0.00833330	     -2.50901718	     -0.52219168	      0.42990647	     -1.09830290	      1.39669862	     -0.05580240	      2.35618734	      1.18030562	      1.82339388	      6.17572785	      0.10778678	      7.88244515	     -3.00124149	     -6.36821923	      2.30386106	     -0.19863432	      1.29245771	      5.21577095	      0.09103238	      8.39201100	      0.38815810	     -6.36821923	     -3.27331612	     -0.75985243	      0.41202051	     -3.70912007	     -5.40388080	     -4.42313781	     28.00205285	     79.07674094	     -1.01441768	     -4.96345452	     -0.31166459	     25.39493143	     75.03054227
      0.01250000	     -2.36109186	     -0.17961742	      0.24717356	     -1.09800133	      1.39995306	     -0.05511731	      2.03589839	      0.85422736	      1.53963748	      5.73763622	      0.10014064	      8.04576175	     -2.02729858	     -6.82043054	      1.62255002	      0.15754868	      1.46840999	      4.34832579	      0.07589260	      7.82566900	      0.20524678	     -6.82043054	     -3.41468706	     -1.29424041	      1.28315837	     -4.44250967	     -4.87799400	     -7.69208401	     28.91090633	     84.13510610	     -0.81742329	     -5.33860374	      0.32994279	     25.47355778	     80.38293429
      0.01666670	     -2.15087862	     -0.12121853	      0.15178475	     -1.09704706	      1.40174854	     -0.05407479	      1.46479952	      0.86674141	      1.54404721	      5.16002334	      0.09005940	      7.94597412	     -1.65947796	     -6.86678961	      1.02218143	      0.21916033	      1.62868581	      3.78427099	      0.06604799	      7.57130002	      0.02320936	     -6.86678961	     -3.65309973	     -1.39230971	      1.44751552	     -4.61737426	     -4.84730829	     -7.32806712	     29.20307222	     83.45781103	     -0.90602999	     -5.37398515	      0.63139260	     25.94442985	     79.75618189
      0.02083330	     -1.96978669	     -0.03092144	      0.06410894	     -1.09707623	      1.39998211	     -0.05410346	      1.14928445	      0.79422484	      1.34326906	      4.93466937	      0.08612623	      8.00821405	     -1.24897535	     -6.96672239	      0.64456525	      0.32784805	      1.82833716	      3.42312311	      0.05974477	      7.48262960	     -0.16642179	     -6.96672239	     -3.89655503	     -1.49123155	      1.73044967	     -4.56062230	     -5.07663273	     -5.99450646	     29.29255977	     83.64900673	     -0.67569543	     -5.52178357	      1.83168598	     26.08913547	     79.94188887
      0.02500000	     -1.95023303	     -0.00123333	      0.05544724	     -1.09799895	      1.39807755	     -0.05395154	      1.08803948	      0.78147135	      1.50861327	      4.74244627	      0.08277130	      7.79170364	     -1.49352441	     -7.01872365	      0.56479922	      0.35975621	      1.98187338	      3.25001219	      0.05672341	      7.47441516	     -0.37333543	     -7.01872365	     -4.01515444	     -1.53832279	      1.97978420	     -4.60947263	     -5.03651467	     -5.92010827	     29.51611922	     82.68328136	     -0.49743097	     -5.40291220	      1.66110489	     26.45413966	     79.03575524
      0.02916670	     -1.97586438	      0.05055256	      0.11990892	     -1.09912717	      1.39624075	     -0.05343352	      1.12960393	      0.71228886	      1.34720801	      4.70150488	      0.08205674	      7.79206406	     -1.32038175	     -7.04395702	      0.65390424	      0.41942187	      2.31300804	      3.24543154	      0.05664347	      7.44875104	     -0.69293429	     -7.04395702	     -4.09750725	     -1.57271934	      2.12660940	     -4.61449173	     -5.04820107	     -5.71192358	     29.74469521	     82.50874000	     -0.29665813	     -5.34158486	      1.59717915	     26.74864804	     78.82917882
      0.03333330	     -1.98451481	      0.05628157	      0.14073600	     -1.09750511	      1.40409686	     -0.05376197	      1.08600645	      0.70912904	      1.39645842	      4.59320008	      0.08016646	      7.64292971	     -1.15473413	     -7.04740736	      0.61134335	      0.38992999	      2.40203393	      3.14902463	      0.05496085	      7.25775307	     -0.78336181	     -7.04740736	     -4.06635273	     -1.56288599	      2.11786791	     -4.62238686	     -4.99765682	     -5.63544801	     29.73785230	     82.69176608	     -0.22802297	     -5.27318042	      1.56775662	     26.72957838	     78.96801836
      0.03750000	     -1.71516679	      0.02334217	      0.20735193	     -1.09751322	      1.40247251	     -0.05409669	      0.66457599	      0.74967851	      1.35757148	      4.44256830	      0.07753744	      7.55093448	     -1.05889741	     -7.10468615	      0.34349360	      0.39245662	      2.75414338	      3.16542046	      0.05524701	      7.07624526	     -1.20035619	     -7.10468615	     -4.49798800	     -1.54885748	      2.06364476	     -4.58497681	     -4.97380066	     -5.43291667	     29.87497073	     81.65058468	     -0.09815023	     -5.19491197	      1.29290410	     26.89729812	     77.95786351
      0.04166670	     -1.69272080	     -0.00429851	      0.15920695	     -1.09880058	      1.39864565	     -0.05379774	      0.66157150	      0.79292494	      1.41807828	      4.51473572	      0.07879700	      7.62147381	     -1.05813595	     -7.22754029	      0.39635903	      0.38381179	      2.84945519	      3.25299908	      0.05677554	      7.05847309	     -1.30821805	     -7.22754029	     -4.64617481	     -1.53620567	      1.85014165	     -4.41466587	     -4.83920128	     -6.77202458	     29.94917156	     90.35026481	     -0.26292336	     -4.93207080	     -1.42627821	     27.10928167	     86.14189947
      0.04583330	     -1.57703888	     -0.05083059	      0.11740329	     -1.09895760	      1.39694693	     -0.05399209	      0.51989917	      0.83629624	      1.49944964	      4.54544726	      0.07933302	      7.59493923	     -1.22709043	     -7.23418001	      0.29906020	      0.35428978	      3.00588949	      3.26998246	      0.05707196	      7.04147607	     -1.39755906	     -7.23418001	     -4.84962555	     -1.49649162	      1.81071074	     -4.42822695	     -4.84416398	     -6.71683512	     30.28776060	     90.04887805	     -0.28715190	     -4.93570762	     -1.45577254	     27.24870461	     85.68043512
      0.05000000	     -1.59688912	     -0.07057724	      0.05830683	     -1.09731520	      1.40497777	     -0.05356673	      0.55930936	      0.85658384	      1.48521096	      4.58852624	      0.08008489	      7.56069665	     -1.19855222	     -7.23492982	      0.35667288	      0.31959463	      3.03787791	      3.34325996	      0.05835089	      6.98096853	     -1.36673718	     -7.23492982	     -4.85474932	     -1.48930811	      1.81240403	     -4.44242527	     -4.77470317	     -6.70168364	     30.31016349	     90.03560204	     -0.34031246	     -4.93036148	     -1.46594308	     27.23147818	     85.67197060
